<?xml version="1.0" encoding="UTF-8"?>
<svg xmlns="http://www.w3.org/2000/svg" xmlns:xlink="http://www.w3.org/1999/xlink" width="0" height="0">
    <symbol id="arrow-up-right" viewBox="0 0 24 24" fill="none" stroke="currentColor" stroke-width="2"
        stroke-linecap="round" stroke-linejoin="round">
        <path d="M7 7h10v10" />
        <path d="M7 17 17 7" />
    </symbol>
    <symbol id="x" viewBox="0 0 24 24" fill="none" stroke="currentColor" stroke-width="2" stroke-linecap="round"
        stroke-linejoin="round">
        <path d="M18 6 6 18" />
        <path d="m6 6 12 12" />
    </symbol>
    <symbol id="github" viewBox="0 0 98 96">
        <path fill-rule="evenodd" clip-rule="evenodd"
            d="M48.854 0C21.839 0 0 22 0 49.217c0 21.756 13.993 40.172 33.405 46.69 2.427.49 3.316-1.059 3.316-2.362 0-1.141-.08-5.052-.08-9.127-13.59 2.934-16.42-5.867-16.42-5.867-2.184-5.704-5.42-7.17-5.42-7.17-4.448-3.015.324-3.015.324-3.015 4.934.326 7.523 5.052 7.523 5.052 4.367 7.496 11.404 5.378 14.235 4.074.404-3.178 1.699-5.378 3.074-6.6-10.839-1.141-22.243-5.378-22.243-24.283 0-5.378 1.94-9.778 5.014-13.2-.485-1.222-2.184-6.275.486-13.038 0 0 4.125-1.304 13.426 5.052a47 47 0 0 1 12.214-1.63c4.125 0 8.33.571 12.213 1.63 9.302-6.356 13.427-5.052 13.427-5.052 2.67 6.763.97 11.816.485 13.038 3.155 3.422 5.015 7.822 5.015 13.2 0 18.905-11.404 23.06-22.324 24.283 1.78 1.548 3.316 4.481 3.316 9.126 0 6.6-.08 11.897-.08 13.526 0 1.304.89 2.853 3.316 2.364 19.412-6.52 33.405-24.935 33.405-46.691C97.707 22 75.788 0 48.854 0"
            fill="currentColor" />
    </symbol>
    <symbol id="menu" viewBox="0 0 24 24" fill="none" transform="scale(-1 1)">
        <g stroke-width="0" />
        <g stroke-linecap="round" stroke-linejoin="round" />
        <path d="M3 12h12M3 6h18M3 18h18" stroke="currentColor" stroke-width="2" stroke-linecap="round"
            stroke-linejoin="round" />
    </symbol>
    <symbol id="moon" viewBox="0 0 24 24" fill="none" stroke="currentColor" stroke-width="2" stroke-linecap="round"
        stroke-linejoin="round">
        <path d="M12 3a6 6 0 0 0 9 9 9 9 0 1 1-9-9Z" />
    </symbol>
    <symbol id="sun" viewBox="0 0 24 24" fill="none" stroke="currentColor" stroke-width="2" stroke-linecap="round"
        stroke-linejoin="round" class="lucide lucide-sun-icon lucide-sun">
        <circle cx="12" cy="12" r="4" />
        <path
            d="M12 2v2m0 16v2M4.93 4.93l1.41 1.41m11.32 11.32 1.41 1.41M2 12h2m16 0h2M6.34 17.66l-1.41 1.41M19.07 4.93l-1.41 1.41" />
    </symbol>
    <symbol id="sparkles" viewBox="0 0 24 24" fill="currentColor" aria-hidden="true">
        <path fill-rule="evenodd"
            d="M9 4.5a.75.75 0 0 1 .721.544l.813 2.846a3.75 3.75 0 0 0 2.576 2.576l2.846.813a.75.75 0 0 1 0 1.442l-2.846.813a3.75 3.75 0 0 0-2.576 2.576l-.813 2.846a.75.75 0 0 1-1.442 0l-.813-2.846a3.75 3.75 0 0 0-2.576-2.576l-2.846-.813a.75.75 0 0 1 0-1.442l2.846-.813A3.75 3.75 0 0 0 7.466 7.89l.813-2.846A.75.75 0 0 1 9 4.5m9-3a.75.75 0 0 1 .728.568l.258 1.036a2.63 2.63 0 0 0 1.91 1.91l1.036.258a.75.75 0 0 1 0 1.456l-1.036.258a2.63 2.63 0 0 0-1.91 1.91l-.258 1.036a.75.75 0 0 1-1.456 0l-.258-1.036a2.63 2.63 0 0 0-1.91-1.91l-1.036-.258a.75.75 0 0 1 0-1.456l1.036-.258a2.63 2.63 0 0 0 1.91-1.91l.258-1.036A.75.75 0 0 1 18 1.5M16.5 15a.75.75 0 0 1 .712.513l.394 1.183c.15.447.5.799.948.948l1.183.395a.75.75 0 0 1 0 1.422l-1.183.395a1.5 1.5 0 0 0-.948.948l-.395 1.183a.75.75 0 0 1-1.422 0l-.395-1.183a1.5 1.5 0 0 0-.948-.948l-1.183-.395a.75.75 0 0 1 0-1.422l1.183-.395a1.5 1.5 0 0 0 .948-.948l.395-1.183A.75.75 0 0 1 16.5 15"
            clip-rule="evenodd" />
    </symbol>
</svg>